<svg xmlns="http://www.w3.org/2000/svg" id="New_Vector" width="16" height="16" version="1.1" viewBox="0 0 16 16"><defs><style>.st0{fill:#ffc36d}.st1{fill:#848484}.st2{opacity:.33}.st3{fill:#8d8d8d}.st4{fill:#ececec}</style></defs><g><polygon points="1.5 14.5 1.5 .5 10.193 .5 13.5 3.807 13.5 14.5 1.5 14.5" class="st4"/><path d="M9.986,1l3.014,3.014v9.986H2V1h7.986M10.4,0H1v15h13V3.6l-3.6-3.6h0Z" class="st1"/></g><polygon points="13 5 13 4 10 4 10 1 9 1 9 5 13 5" class="st3"/><g><rect width="6" height="3" x="3" y="5" class="st0"/><g class="st2"><path d="M8,6v1h-4v-1h4M9,5H3v3h6v-3h0Z"/></g></g><g><rect width="6" height="3" x="6" y="11" class="st0"/><g class="st2"><path d="M11,12v1h-4v-1h4M12,11h-6v3h6v-3h0Z"/></g></g><g class="st2"><rect width="4" height="1" x="3" y="3"/><rect width="3" height="1" x="9" y="6"/><rect width="9" height="1" x="3" y="9"/><rect width="3" height="1" x="3" y="12"/></g><description>Apache NetBeans Logo</description></svg>