<svg xmlns="http://www.w3.org/2000/svg" id="New_Vector" width="16" height="16" version="1.1" viewBox="0 0 16 16"><defs><style>.st0{fill:#ab8349}.st1{fill:#57bfff}.st2{fill:#c4c4c4}.st3{fill:#ffc36d}.st4{opacity:.33}</style></defs><g><rect width="12" height="6" x="3.5" y=".5" class="st3"/><path d="M15,1v5H4V1h11M16,0H3v7h13V0h0Z" class="st0"/></g><g><rect width="10" height="7" y="8" class="st2"/><g class="st4"><path d="M9,9v5H1v-5h8M10,8H0v7h10v-7h0Z"/></g></g><g><polygon points="13 3 5 3 5 4 7 6 3 10 6 13 10 9 12 11 13 11 13 3" class="st1"/><g class="st4"><path d="M12,4v5.586l-1.293-1.293-.707-.707-.707.707-3.293,3.293-1.586-1.586,3.293-3.293.707-.707-.707-.707-1.293-1.293h5.586M13,3H5v1l2,2-4,4,3,3,4-4,2,2h1V3h0Z"/></g></g><description>Apache NetBeans Logo</description></svg>