<svg xmlns="http://www.w3.org/2000/svg" id="New_Vector" width="16" height="16" version="1.1" viewBox="0 0 16 16"><defs><style>.st0{fill:#ab8349}.st1{fill:#b6daf2}.st2{fill:#ffc36d}.st3{opacity:.33}.st4{opacity:.15}</style></defs><g><rect width="16" height="12" y="3" class="st1"/><g class="st3"><path d="M15,4v10H1V4h14M16,3H0v12h16V3h0Z"/></g></g><g><polygon points="5.5 9.5 5.5 5.5 3.5 5.5 3.5 4.207 7.5 .207 11.5 4.207 11.5 5.5 9.5 5.5 9.5 9.5 5.5 9.5" class="st2"/><path d="M7.5.914l3.5,3.5v.586h-2v4h-3v-4h-2v-.586L7.5.914M7.5-.5L3,4v2h2v4h5v-4h2v-2L7.5-.5h0Z" class="st0"/></g><g class="st4"><rect width="9" height="1" x="2" y="12"/><rect width="2" height="1" x="2" y="10"/><rect width="2" height="1" x="2" y="8"/><rect width="3" height="1" x="11" y="8"/><rect width="2" height="1" x="11" y="10"/></g><description>Apache NetBeans Logo</description></svg>