<svg xmlns="http://www.w3.org/2000/svg" xmlns:xlink="http://www.w3.org/1999/xlink" id="Vector_Icons" width="16" height="16" x="0" style="enable-background:new 0 0 16 16" y="0" version="1.1" viewBox="0 0 16 16" xml:space="preserve"><g><path style="fill:#57bfff" d="M6,10h10V0h-1l-3.05,3.05C10.683,1.783,8.933,1,7,1C3.134,1,0,4.134,0,8s3.134,7,7,7v-3.75 c-1.795,0-3.25-1.455-3.25-3.25S5.205,4.75,7,4.75c0.897,0,1.71,0.364,2.298,0.952L6,9V10z"/><g style="opacity:.33"><path d="M15,1.414V9H7.414l2.591-2.591l0.707-0.707l-0.707-0.707C9.202,4.192,8.135,3.75,7,3.75C4.656,3.75,2.75,5.656,2.75,8 c0,1.999,1.387,3.68,3.25,4.131v1.786C3.166,13.439,1,10.968,1,8c0-3.308,2.692-6,6-6c1.603,0,3.109,0.624,4.243,1.757 l0.707,0.707l0.707-0.707L15,1.414 M16,0h-1l-3.05,3.05C10.683,1.783,8.933,1,7,1C3.134,1,0,4.134,0,8s3.134,7,7,7v-3.75 c-1.795,0-3.25-1.455-3.25-3.25S5.205,4.75,7,4.75c0.897,0,1.71,0.364,2.298,0.952L6,9v1h10V0L16,0z"/></g></g></svg>