<svg xmlns="http://www.w3.org/2000/svg" xmlns:xlink="http://www.w3.org/1999/xlink" id="Vector_Icons" width="16" height="16" x="0" style="enable-background:new 0 0 16 16" y="0" version="1.1" viewBox="0 0 16 16" xml:space="preserve"><g><path style="fill:#e69d35" d="M10,10H0V0h1l3.05,3.05C5.317,1.783,7.067,1,9,1c3.866,0,7,3.134,7,7s-3.134,7-7,7v-3.75 c1.795,0,3.25-1.455,3.25-3.25S10.795,4.75,9,4.75c-0.898,0-1.71,0.364-2.298,0.952L10,9V10z"/><g style="opacity:.33"><path d="M1,1.414l2.343,2.343L4.05,4.464l0.707-0.707C5.891,2.624,7.397,2,9,2c3.308,0,6,2.692,6,6c0,2.968-2.166,5.439-5,5.917 v-1.786C11.863,11.68,13.25,9.999,13.25,8c0-2.344-1.907-4.25-4.25-4.25c-1.135,0-2.203,0.442-3.005,1.245L5.288,5.702 l0.707,0.707L8.586,9H1V1.414 M1,0H0v10h10V9L6.702,5.702C7.29,5.114,8.102,4.75,9,4.75c1.795,0,3.25,1.455,3.25,3.25 S10.795,11.25,9,11.25V15c3.866,0,7-3.134,7-7s-3.134-7-7-7C7.067,1,5.317,1.783,4.05,3.05L1,0L1,0z"/></g></g></svg>