<svg xmlns="http://www.w3.org/2000/svg" id="New_Vector" width="16" height="16" version="1.1" viewBox="0 0 16 16"><defs><style>.st0{fill:#137f00}.st1{fill:#90564f}.st2{fill:#f2aba2}.st3{fill:#b0db86}</style></defs><g><rect width="6" height="6" x=".5" y="6.5" class="st2"/><path d="M6,7v5H1v-5h5M7,6H0v7h7v-7h0Z" class="st1"/></g><g><rect width="6" height="6" x="3.5" y="3.5" class="st2"/><path d="M9,4v5h-5v-5h5M10,3H3v7h7V3h0Z" class="st1"/></g><g><polygon points="10.5 12.5 10.5 10.5 6.5 10.5 6.5 6.5 10.5 6.5 10.5 4.5 11.308 4.5 15.773 8.519 11.793 12.5 10.5 12.5" class="st3"/><path d="M11.116,5l3.931,3.538-3.462,3.462h-.586v-2h-4v-3h4v-2h.116M11.5,4h-1.5v2h-4v5h4v2h2l4.5-4.5-5-4.5h0Z" class="st0"/></g><description>Apache NetBeans Logo</description></svg>