<svg xmlns="http://www.w3.org/2000/svg" id="New_Vector" width="16" height="16" version="1.1" viewBox="0 0 16 16"><defs><style>.st0{opacity:.33}.st1{fill:#ffb0a9}.st2{fill:#ffcea5}.st3{fill:#8abade}</style></defs><g><path d="M13,15h-6v-6c0-1.105.895-2,2-2h2c1.105,0,2,.895,2,2v6Z" class="st3"/><g class="st0"><path d="M11,8c.551,0,1,.449,1,1v5h-4v-5c0-.551.449-1,1-1h2M11,7h-2c-1.105,0-2,.895-2,2v6h6v-6c0-1.105-.895-2-2-2h0Z"/></g></g><g><path d="M8,15H2V6c0-1.105.895-2,2-2h2c1.105,0,2,.895,2,2v9Z" class="st3"/><g class="st0"><path d="M6,5c.551,0,1,.449,1,1v8H3V6c0-.551.449-1,1-1h2M6,4h-2c-1.105,0-2,.895-2,2v9h6V6c0-1.105-.895-2-2-2h0Z"/></g></g><g><path d="M8,10H2v-4c0-1.105.895-2,2-2h2c1.105,0,2,.895,2,2v4Z" class="st1"/><g class="st0"><path d="M6,5c.551,0,1,.449,1,1v3H3v-3c0-.551.449-1,1-1h2M6,4h-2c-1.105,0-2,.895-2,2v4h6v-4c0-1.105-.895-2-2-2h0Z"/></g></g><g><rect width="4" height="6" x="3" class="st2" rx="2" ry="2"/><g class="st0"><path d="M5,1c.551,0,1,.449,1,1v2c0,.551-.449,1-1,1s-1-.449-1-1v-2c0-.551.449-1,1-1M5,0c-1.105,0-2,.895-2,2v2c0,1.105.895,2,2,2s2-.895,2-2v-2c0-1.105-.895-2-2-2h0Z"/></g></g><g><path d="M13,11h-6v-2c0-1.105.895-2,2-2h2c1.105,0,2,.895,2,2v2Z" class="st1"/><g class="st0"><path d="M11,8c.551,0,1,.449,1,1v1h-4v-1c0-.551.449-1,1-1h2M11,7h-2c-1.105,0-2,.895-2,2v2h6v-2c0-1.105-.895-2-2-2h0Z"/></g></g><g><rect width="4" height="4" x="8" y="4" class="st2" rx="2" ry="2"/><g class="st0"><path d="M10,5c.551,0,1,.449,1,1s-.449,1-1,1-1-.449-1-1,.449-1,1-1M10,4c-1.105,0-2,.895-2,2s.895,2,2,2,2-.895,2-2-.895-2-2-2h0Z"/></g></g></svg>